<?xml version="1.0" encoding="utf-8"?>
<!-- Generator: Adobe Illustrator 22.0.1, SVG Export Plug-In . SVG Version: 6.00 Build 0)  -->
<svg version="1.1" id="Capa_1" xmlns="http://www.w3.org/2000/svg" xmlns:xlink="http://www.w3.org/1999/xlink" x="0px" y="0px"
	 viewBox="0 0 438.5 438.5" style="enable-background:new 0 0 438.5 438.5;" xml:space="preserve">
<style type="text/css">
	.st0{fill:#708090;}
</style>
<g>
	<path class="st0" d="M414.4,24.1C398.3,8,379,0,356.3,0H82.2c-22.6,0-42,8-58.1,24.1C8,40.2,0,59.6,0,82.2v274.1
		c0,22.6,8,42,24.1,58.1c16.1,16.1,35.5,24.1,58.1,24.1h274.1c22.6,0,42-8,58.1-24.1c16.1-16.1,24.1-35.5,24.1-58.1V82.2
		C438.5,59.6,430.5,40.2,414.4,24.1z M133.6,367.2h-66V169h66L133.6,367.2L133.6,367.2z M127.6,132.3c-6.9,6.6-15.9,9.9-27.1,9.9
		h-0.3c-10.8,0-19.6-3.3-26.4-9.9c-6.8-6.6-10.1-14.7-10.1-24.4c0-9.9,3.5-18.1,10.4-24.6c6.9-6.5,15.9-9.7,27-9.7
		c11,0,19.9,3.2,26.6,9.7c6.7,6.5,10.1,14.7,10.3,24.6C137.9,117.6,134.5,125.8,127.6,132.3z M370.9,367.2h-66V261.2
		c0-29.9-11-44.8-33.1-44.8c-8.4,0-15.4,2.3-21.1,7c-5.7,4.7-10,10.3-12.8,17c-1.3,3.4-2,8.8-2,16v110.8h-66
		c0.6-119.5,0.6-185.6,0-198.1h66v28c13.9-21.7,33.6-32.5,59.1-32.5c22.8,0,41.2,7.5,55.1,22.6c13.9,15,20.8,37.2,20.8,66.5
		L370.9,367.2L370.9,367.2L370.9,367.2z"/>
</g>
</svg>
